<svg width="35" height="34" viewBox="0 0 35 34" fill="none" xmlns="http://www.w3.org/2000/svg">
<path fill-rule="evenodd" clip-rule="evenodd" d="M28.5215 20.8159C30.099 20.8159 31.5468 21.4303 32.6419 22.5253C33.7376 23.6211 34.3513 25.1111 34.3513 26.6457C34.3513 28.2233 33.7369 29.6711 32.6419 30.7661C31.5461 31.8619 30.0561 32.4755 28.5215 32.4755C26.9439 32.4755 25.4961 31.8612 24.4011 30.7661C23.3053 29.6704 22.6917 28.1804 22.6917 26.6457C22.6917 25.0681 23.306 23.6204 24.4011 22.5253C25.4968 21.4296 26.9868 20.8159 28.5215 20.8159ZM28.5215 31.4301C29.7994 31.4301 30.9939 30.9518 31.9107 30.035C32.8276 29.1181 33.3059 27.9236 33.3059 26.6457C33.3059 25.3678 32.8276 24.1733 31.9107 23.2565C30.9939 22.3396 29.7994 21.8613 28.5215 21.8613C27.2435 21.8613 26.049 22.3396 25.1322 23.2565C24.2153 24.1733 23.737 25.3678 23.737 26.6457C23.737 27.9236 24.2153 29.1181 25.1322 30.035C26.049 30.9518 27.2435 31.4301 28.5215 31.4301ZM30.1973 24.4993L30.2014 24.4933C30.3541 24.2642 30.6736 24.1719 30.9257 24.34C31.1555 24.4932 31.2048 24.7684 31.2048 24.9256V24.9944L28.95 28.7808C28.8583 28.9546 28.6833 29.0353 28.5215 29.0353H28.4796C28.3251 29.0353 28.1787 28.9639 28.093 28.8782L28.0894 28.8746L26.0909 26.7927C25.9643 26.6946 25.9116 26.5459 25.9116 26.4149C25.9116 26.2886 25.9606 26.1458 26.0777 26.0478C26.1757 25.9308 26.3185 25.8818 26.4448 25.8818C26.5776 25.8818 26.7285 25.9359 26.8266 26.0662L28.3475 27.6596L30.1973 24.4993ZM28.3956 28.0721L26.6336 26.2262C26.5497 26.1003 26.3399 26.1003 26.256 26.2262C26.2018 26.2623 26.171 26.3217 26.1634 26.3844C26.171 26.3218 26.2018 26.2623 26.256 26.2262C26.3399 26.1003 26.5497 26.1003 26.6336 26.2262L28.3956 28.0721L30.4094 24.632C30.4933 24.5061 30.6611 24.4641 30.787 24.548C30.8604 24.597 30.9052 24.6744 30.9299 24.7554C30.9052 24.6744 30.8604 24.5969 30.787 24.548C30.6611 24.4641 30.4933 24.5061 30.4094 24.6319L28.3956 28.0721Z" fill="white"/>
<path d="M21.5152 29.0788L15.1803 32.2673V15.0664L20.2986 12.5492V19.01C20.2986 19.0939 20.3405 19.1778 20.4244 19.2617C20.4664 19.3037 20.5084 19.3037 20.5503 19.3037C20.5923 19.3037 20.6342 19.3037 20.6762 19.2617L23.4871 17.7094C23.571 17.6675 23.6129 17.5836 23.6129 17.4577V10.871L28.2697 8.56359V19.052C28.2697 19.2198 28.3956 19.3456 28.5634 19.3456C28.7312 19.3456 28.8571 19.2198 28.8571 19.052V8.14406C28.8571 8.10211 28.8571 8.10211 28.8571 8.06015C28.8571 8.06015 28.8571 8.0182 28.8151 8.0182L28.7732 7.97625L28.7312 7.93429L15.0125 1.05393C14.9285 1.01197 14.8446 1.01197 14.7607 1.05393L7.08325 4.87169C6.99934 4.87169 6.91544 4.91364 6.87348 4.99755L1.12586 7.89234C1.12586 7.89234 1.08391 7.89234 1.08391 7.93429L1.04195 7.97625C1.04195 7.97625 1.04195 8.0182 1 8.0182C1 8.06015 1 8.06015 1 8.10211V25.8484C1 25.9323 1.04195 26.0582 1.16781 26.1001L14.8027 33.0225H14.8446H14.8866H14.9285H14.9705L21.6831 29.6242C21.8089 29.5403 21.8509 29.3725 21.8089 29.2466C21.8089 29.0788 21.6411 29.0369 21.5152 29.0788ZM20.6762 11.6262L7.75451 5.16536L9.85218 4.11653L22.8577 10.6193L20.7601 11.6682C20.7601 11.6682 20.7181 11.6262 20.6762 11.6262ZM23.1095 17.3319L20.844 18.5485V12.2555L23.1095 11.1228V17.3319ZM14.8866 1.59932L27.8922 8.10211L23.4451 10.3256L10.4395 3.82285L14.8866 1.59932ZM7.16716 5.45904L20.1727 11.9618L14.8866 14.6049L1.88102 8.10211L7.16716 5.45904ZM1.5454 8.56359L14.6349 15.1083V32.3092L1.5454 25.6806V8.56359Z" fill="white"/>
<path fill-rule="evenodd" clip-rule="evenodd" d="M21.419 28.8474L21.4362 28.8416C21.5474 28.8046 21.6873 28.7995 21.8127 28.8565C21.9452 28.9167 22.0433 29.0402 22.0572 29.2057C22.1112 29.42 22.0392 29.6872 21.8217 29.8322L21.8093 29.8405L15.0302 33.2724H14.7429L1.06857 26.3301C0.81541 26.2342 0.75 25.9843 0.75 25.8484V7.76817H0.884589C0.917483 7.72022 0.958923 7.69102 0.99308 7.67394C1.01041 7.66528 1.02695 7.65915 1.04169 7.65478L6.70119 4.80437C6.78251 4.70048 6.89867 4.64262 7.01495 4.62641L14.6489 0.830285C14.8032 0.753209 14.97 0.753163 15.1243 0.830285L28.8794 7.72891L28.9515 7.80102C28.9605 7.8057 28.9694 7.81092 28.9781 7.81671C29.0279 7.84993 29.058 7.89244 29.0755 7.92734C29.0924 7.96126 29.0997 7.99216 29.103 8.01247C29.1048 8.02321 29.1058 8.03271 29.1064 8.04051L29.1069 8.05132L29.1071 8.05597L29.1071 8.05811L29.1071 8.05913C29.1071 8.05913 29.1071 8.06011 28.8793 8.06012L29.1071 8.05913L29.1071 19.0519C29.1071 19.3578 28.8693 19.5956 28.5634 19.5956C28.2575 19.5956 28.0197 19.3578 28.0197 19.0519V8.96644L23.8629 11.0261V17.4577C23.8629 17.6389 23.7978 17.8306 23.6042 17.9303L20.8209 19.4673C20.7138 19.5541 20.6004 19.5538 20.5551 19.5537L20.5503 19.5536L20.5455 19.5537C20.4956 19.5538 20.3634 19.5542 20.2477 19.4385C20.1365 19.3273 20.0486 19.1836 20.0486 19.01V12.9507L15.4303 15.222V31.8616L21.419 28.8474ZM15.4303 32.1414L15.1803 32.2673V15.0663L20.2986 12.5491V19.01C20.2986 19.0939 20.3405 19.1778 20.4244 19.2617C20.4664 19.3036 20.5084 19.3036 20.5503 19.3036C20.5923 19.3036 20.6342 19.3036 20.6762 19.2617L23.4871 17.7094C23.571 17.6675 23.6129 17.5836 23.6129 17.4577V10.871L28.2697 8.56356V19.0519C28.2697 19.2197 28.3956 19.3456 28.5634 19.3456C28.7312 19.3456 28.8571 19.2197 28.8571 19.0519V8.06012C28.8571 8.06012 28.8571 8.01817 28.8151 8.01817L28.7732 7.97621L28.8151 7.93425M28.7732 7.97621L28.7312 7.93426L15.0125 1.05389C14.9285 1.01194 14.8446 1.01194 14.7607 1.05389L7.08325 4.87166C6.99934 4.87166 6.91544 4.91361 6.87348 4.99752L1.12586 7.8923C1.12586 7.8923 1.08391 7.8923 1.08391 7.93426L1.04195 7.97621C1.04195 7.97621 1.04195 8.01817 1 8.01817V25.8484C1 25.9323 1.04195 26.0582 1.16781 26.1001L14.8027 33.0224H14.9705L21.6831 29.6242C21.8089 29.5403 21.8509 29.3725 21.8089 29.2466C21.8089 29.0788 21.6411 29.0368 21.5152 29.0788L15.4303 32.1414M20.7617 11.3878L22.2987 10.6193L9.85218 4.396L8.31352 5.16533L20.7549 11.386C20.7572 11.3866 20.7595 11.3872 20.7617 11.3878ZM20.6762 11.6262C20.7181 11.6262 20.7601 11.6681 20.7601 11.6681L22.8577 10.6193L9.85218 4.11649L7.75451 5.16533L20.6762 11.6262ZM23.1095 17.3318V11.1227L20.844 12.2555V18.5485L23.1095 17.3318ZM21.094 18.1305L22.8595 17.1823V11.5272L21.094 12.41V18.1305ZM14.8866 1.59929L10.4395 3.82282L23.4451 10.3256L27.8922 8.10207L14.8866 1.59929ZM27.3331 8.10207L14.8866 1.87879L10.9985 3.82282L23.4451 10.0461L27.3331 8.10207ZM7.16716 5.73851L2.44004 8.10207L14.8866 14.3253L19.6137 11.9618L7.16716 5.73851ZM7.16716 5.459L1.88102 8.10207L14.8866 14.6049L20.1727 11.9618L7.16716 5.459ZM1.5454 8.56356V25.6806L14.6349 32.3092V15.1083L1.5454 8.56356ZM1.7954 8.96807V25.5269L14.3849 31.9024V15.2628L1.7954 8.96807Z" fill="white"/>
</svg>
