<svg width="61" height="32" viewBox="0 0 61 32" fill="none" xmlns="http://www.w3.org/2000/svg">
<path d="M9.19583 17.3542H0.75068C0.335554 17.3542 0 17.6898 0 18.1049C0 18.5201 0.335554 18.8556 0.75068 18.8556H9.19583C9.61096 18.8556 9.94651 18.5201 9.94651 18.1049C9.94651 17.6898 9.61096 17.3542 9.19583 17.3542Z" fill="white"/>
<path d="M8.26255 23.1277H7.39326C6.97813 23.1277 6.64258 23.4632 6.64258 23.8784C6.64258 24.2935 6.97813 24.629 7.39326 24.629H8.26255C8.67767 24.629 9.01323 24.2935 9.01323 23.8784C9.01323 23.4632 8.67767 23.1277 8.26255 23.1277Z" fill="white"/>
<path d="M60.2613 18.6049L52.9512 10.5928H44.2471V5.37337H25.5784C24.1649 2.2115 20.9963 0 17.3149 0C12.3237 0 8.26172 4.06118 8.26172 9.05321C8.26172 13.6984 11.7809 17.5336 16.2925 18.0441V23.1285H10.6586C10.2435 23.1285 9.90796 23.464 9.90796 23.8791C9.90796 24.2943 10.2435 24.6298 10.6586 24.6298H16.2925V28.8201H19.8027C20.0609 30.6135 21.5915 32 23.454 32C25.3172 32 26.8478 30.6127 27.106 28.8201H42.745H44.2463H48.0913C48.3495 30.6135 49.8802 32 51.7434 32C53.6058 32 55.1372 30.6127 55.3947 28.8201H60.2598V18.6049H60.2613ZM9.76308 9.05245C9.76308 4.88843 13.1509 1.50061 17.3149 1.50061C21.4789 1.50061 24.8668 4.88843 24.8668 9.05245C24.8668 13.2165 21.4789 16.6043 17.3149 16.6043C13.1509 16.6043 9.76308 13.2157 9.76308 9.05245ZM23.454 30.4979C22.2394 30.4979 21.2507 29.51 21.2507 28.2939C21.2507 27.08 22.2386 26.0914 23.454 26.0914C24.6693 26.0914 25.658 27.0793 25.658 28.2939C25.658 29.51 24.6701 30.4979 23.454 30.4979ZM42.7457 27.318H27.0122C26.5806 25.7506 25.1573 24.5908 23.4547 24.5908C21.7522 24.5908 20.3297 25.7506 19.898 27.318H17.7946V18.0809C22.5629 17.8287 26.3681 13.8816 26.3681 9.0517C26.3681 8.29952 26.2653 7.57286 26.0926 6.87398H42.7465V10.5921V27.318H42.7457ZM51.7441 30.4979C50.5288 30.4979 49.5401 29.51 49.5401 28.2939C49.5401 27.08 50.528 26.0914 51.7441 26.0914C52.9587 26.0914 53.9474 27.0793 53.9474 28.2939C53.9474 29.51 52.9587 30.4979 51.7441 30.4979ZM58.76 27.318H55.3008C54.8692 25.7506 53.4459 24.5908 51.7441 24.5908C50.0408 24.5908 48.6183 25.7506 48.1866 27.318H44.2471V12.0935H52.2884L58.76 19.1866V27.318Z" fill="white"/>
<path d="M2.29267 11.7797H6.61359C7.02871 11.7797 7.36427 11.4434 7.36427 11.029C7.36427 10.6139 7.02871 10.2783 6.61359 10.2783H2.29267C1.87755 10.2783 1.54199 10.6139 1.54199 11.029C1.54199 11.4434 1.87755 11.7797 2.29267 11.7797Z" fill="white"/>
<path d="M17.1752 10.1372C17.2165 10.165 17.2517 10.2003 17.2968 10.219C17.3869 10.2573 17.486 10.2783 17.5895 10.2783H21.9105C22.3256 10.2783 22.6611 9.94202 22.6611 9.52765C22.6611 9.11252 22.3256 8.77697 21.9105 8.77697H18.3402V3.04627C18.3402 2.63115 18.0047 2.29559 17.5895 2.29559C17.1752 2.29559 16.8389 2.63115 16.8389 3.04627V9.52765C16.8389 9.63124 16.8599 9.73033 16.8982 9.82041C16.9169 9.8662 16.9522 9.90073 16.98 9.94202C17.0063 9.98106 17.0258 10.0253 17.0581 10.0584C17.0903 10.0914 17.1361 10.1109 17.1752 10.1372Z" fill="white"/>
</svg>
