<svg width="30" height="33" viewBox="0 0 30 33" fill="none" xmlns="http://www.w3.org/2000/svg">
<path fill-rule="evenodd" clip-rule="evenodd" d="M0.527778 14.4225H1.64719L3.69867 30.4908C3.71509 30.6194 3.7773 30.7375 3.87365 30.8231C3.97001 30.9087 4.09393 30.9559 4.22222 30.9559H16.6461C16.9421 31.2911 17.3047 31.5594 17.7103 31.7432C18.116 31.927 18.5555 32.0222 19 32.0225H19.8265C20.4061 32.022 20.9777 31.8856 21.4964 31.6241C21.8687 31.4371 22.2787 31.3398 22.6944 31.3398C23.1102 31.3398 23.5202 31.4371 23.8925 31.6241C24.4111 31.8856 24.9828 32.022 25.5624 32.0225H26.3889C27.2285 32.0217 28.0335 31.6843 28.6271 31.0843C29.2208 30.4844 29.5547 29.671 29.5556 28.8225V25.6225C29.5547 24.7741 29.2208 23.9606 28.6271 23.3607C28.0335 22.7608 27.2285 22.4234 26.3889 22.4225H25.5624C24.9828 22.423 24.4111 22.5594 23.8925 22.8209C23.5202 23.0079 23.1102 23.1052 22.6944 23.1052C22.2787 23.1052 21.8687 23.0079 21.4964 22.8209C21.1954 22.6717 20.8758 22.564 20.5464 22.5009L21.575 14.4225H22.6944C22.8344 14.4225 22.9687 14.3663 23.0676 14.2663C23.1666 14.1663 23.2222 14.0306 23.2222 13.8892V11.7559C23.2222 11.6144 23.1666 11.4788 23.0676 11.3787C22.9687 11.2787 22.8344 11.2225 22.6944 11.2225H20.5833V9.62252C20.5833 9.48108 20.5277 9.34545 20.4287 9.24546L17.9444 6.73506V5.07852L18.7446 4.43212L20.111 7.19426L21.0557 6.71746L19.5874 3.75052L20.2403 3.22252H22.1667C22.3066 3.22252 22.4409 3.16633 22.5399 3.06631C22.6388 2.96629 22.6944 2.83064 22.6944 2.68919V0.555855C22.6944 0.414407 22.6388 0.278751 22.5399 0.178732C22.4409 0.0787123 22.3066 0.022522 22.1667 0.022522H16.8889C15.6296 0.0240745 14.4223 0.530286 13.5318 1.43012C12.6414 2.32996 12.1404 3.54996 12.1389 4.82252C12.1389 4.96397 12.1945 5.09963 12.2935 5.19965C12.3925 5.29966 12.5267 5.35586 12.6667 5.35586H13.7222V6.73506L12.2935 8.17879C12.1945 8.27878 12.1389 8.41442 12.1389 8.55586V11.2225H11.0833V6.95586C11.0825 6.88981 11.0695 6.8245 11.0448 6.76332C11.0351 6.74257 11.0242 6.72244 11.0121 6.70306C10.9994 6.67509 10.9846 6.64817 10.9678 6.62252L8.97222 4.10252V0.555855C8.97222 0.414407 8.91662 0.278751 8.81764 0.178732C8.71866 0.0787123 8.58442 0.022522 8.44445 0.022522H5.27778C5.1378 0.022522 5.00356 0.0787123 4.90458 0.178732C4.80561 0.278751 4.75 0.414407 4.75 0.555855V4.10252L2.75447 6.62252C2.73766 6.64817 2.72283 6.67509 2.71014 6.70306C2.69801 6.72244 2.68708 6.74257 2.67742 6.76332C2.65277 6.8245 2.6397 6.88981 2.63889 6.95586V11.2225H0.527778C0.387802 11.2225 0.25356 11.2787 0.154583 11.3787C0.0556051 11.4788 0 11.6144 0 11.7559V13.8892C0 14.0306 0.0556051 14.1663 0.154583 14.2663C0.25356 14.3663 0.387802 14.4225 0.527778 14.4225ZM26.3889 30.9559H25.5624C25.1467 30.9553 24.7368 30.8574 24.3649 30.67C23.8458 30.4094 23.2741 30.2738 22.6944 30.2738C22.1148 30.2738 21.5431 30.4094 21.024 30.67C20.6521 30.8574 20.2422 30.9553 19.8265 30.9559H19C18.4401 30.9559 17.9031 30.7311 17.5072 30.331C17.1113 29.9309 16.8889 29.3883 16.8889 28.8225V28.0012C17.4677 28.5296 18.2199 28.8223 19 28.8225H19.8265C20.4061 28.822 20.9777 28.6856 21.4964 28.4241C21.8687 28.2371 22.2787 28.1398 22.6944 28.1398C23.1102 28.1398 23.5202 28.2371 23.8925 28.4241C24.4111 28.6856 24.9828 28.822 25.5624 28.8225H26.3889C27.169 28.8223 27.9212 28.5296 28.5 28.0012V28.8225C28.5 29.3883 28.2776 29.9309 27.8817 30.331C27.4858 30.7311 26.9488 30.9559 26.3889 30.9559ZM24.3649 23.7751C24.7368 23.5876 25.1467 23.4898 25.5624 23.4892H26.3889C26.9488 23.4892 27.4858 23.714 27.8817 24.114C28.2776 24.5141 28.5 25.0567 28.5 25.6225C28.5 26.1883 28.2776 26.7309 27.8817 27.131C27.4858 27.5311 26.9488 27.7559 26.3889 27.7559H25.5624C25.1467 27.7553 24.7368 27.6574 24.3649 27.47C23.8458 27.2094 23.2741 27.0737 22.6944 27.0737C22.1148 27.0737 21.5431 27.2094 21.024 27.47C20.6521 27.6574 20.2422 27.7553 19.8265 27.7559H19C18.4401 27.7559 17.9031 27.5311 17.5072 27.131C17.1113 26.7309 16.8889 26.1883 16.8889 25.6225C16.8889 25.0567 17.1113 24.5141 17.5072 24.114C17.9031 23.714 18.4401 23.4892 19 23.4892H19.8265C20.2422 23.4898 20.6521 23.5876 21.024 23.7751C21.5431 24.0355 22.1149 24.171 22.6944 24.171C23.274 24.171 23.8457 24.0355 24.3649 23.7751ZM19.4893 22.4225H19C18.1604 22.4234 17.3554 22.7608 16.7618 23.3607C16.1681 23.9606 15.8342 24.7741 15.8333 25.6225V28.8225C15.8342 29.1861 15.8967 29.5469 16.0181 29.8892H4.68614L2.71119 14.4225H5.27778V24.0225C5.27778 24.5883 5.5002 25.1309 5.89611 25.531C6.29202 25.9311 6.82899 26.1559 7.38889 26.1559H12.6667C13.2266 26.1559 13.7635 25.9311 14.1594 25.531C14.5554 25.1309 14.7778 24.5883 14.7778 24.0225V19.5521L16.1563 20.2487C16.3553 20.3479 16.5717 20.4064 16.7931 20.4207C17.0145 20.4351 17.2365 20.405 17.4464 20.3323C17.6562 20.2596 17.8498 20.1456 18.0159 19.997C18.182 19.8483 18.3173 19.668 18.4142 19.4663C18.5154 19.2635 18.576 19.0425 18.5926 18.816C18.6092 18.5895 18.5814 18.3619 18.5108 18.1463C18.4411 17.9306 18.3296 17.7311 18.1828 17.5595C18.036 17.3879 17.8568 17.2476 17.6558 17.1468L14.7778 15.6929V14.4225H20.511L19.4893 22.4225ZM13.7222 12.2892V16.0225C13.7217 16.1221 13.7487 16.2198 13.8003 16.3046C13.8519 16.3895 13.9259 16.458 14.0141 16.5025L17.1808 18.1025C17.2572 18.1406 17.3253 18.1938 17.381 18.2589C17.4368 18.324 17.4791 18.3998 17.5053 18.4817C17.5324 18.5696 17.5417 18.6622 17.5326 18.7538C17.5236 18.8454 17.4963 18.9343 17.4526 19.0151C17.4164 19.0884 17.3663 19.1538 17.305 19.2075C17.2438 19.2612 17.1727 19.3022 17.0958 19.3281C17.0189 19.354 16.9376 19.3644 16.8568 19.3585C16.7759 19.3526 16.697 19.3307 16.6245 19.294L14.4817 18.2113C14.4013 18.1716 14.3123 18.1533 14.223 18.1579C14.1337 18.1625 14.047 18.19 13.971 18.2378C13.8951 18.2855 13.8324 18.352 13.7889 18.431C13.7454 18.51 13.7224 18.5988 13.7222 18.6892V24.0225C13.7222 24.3054 13.611 24.5767 13.4131 24.7768C13.2151 24.9768 12.9466 25.0892 12.6667 25.0892V20.2892H11.6111V25.0892H10.5556V20.2892H9.5V25.0892H8.44445V20.2892H7.38889V25.0892C7.10894 25.0892 6.84045 24.9768 6.6425 24.7768C6.44454 24.5767 6.33333 24.3054 6.33333 24.0225V12.2892H12.6667H13.7222ZM22.1667 13.3559H14.7778V12.2892H22.1667V13.3559ZM21.6389 2.15586H20.5833V1.08919H21.6389V2.15586ZM16.8889 1.08919H19.5278V2.43319L17.2314 4.28919H13.2319C13.36 3.40109 13.7999 2.58917 14.4713 2.00168C15.1427 1.41418 16.0008 1.09031 16.8889 1.08919ZM16.8889 5.35586V6.42252H14.7778V5.35586H16.8889ZM13.1944 8.77666L14.4685 7.48919H17.1982L19.5278 9.84332V11.2225H13.1944V8.77666ZM5.53111 4.82252H8.19111L9.45778 6.42252H4.26444L5.53111 4.82252ZM5.80556 1.08919H7.91667V3.75586H5.80556V1.08919ZM3.69444 7.48919H10.0278V11.2225H3.69444V7.48919ZM1.05556 12.2892H5.27778V13.3559H1.05556V12.2892ZM26.9169 24.5557H25.8613V25.6224H26.9169V24.5557ZM20.5835 24.5557H21.6391V25.6224H20.5835V24.5557ZM19.5277 25.0893H18.4722V26.156H19.5277V25.0893ZM23.75 25.0893H24.8056V26.156H23.75V25.0893Z" fill="white"/>
</svg>
